<?xml version="1.0" encoding="UTF-8" standalone="no"?>
<svg width="1024px" height="725px" viewBox="0 0 1024 725" version="1.1" xmlns="http://www.w3.org/2000/svg" xmlns:xlink="http://www.w3.org/1999/xlink">
    <!-- Generator: sketchtool 3.7.2 (28276) - http://www.bohemiancoding.com/sketch -->
    <title>Spec/IdentityColors</title>
    <desc>Created with sketchtool.</desc>
    <defs></defs>
    <g id="Identity" stroke="none" stroke-width="1" fill="none" fill-rule="evenodd">
        <g id="Identity-Colors">
            <g id="Colors" transform="translate(512.000000, 362.000000) scale(-1, 1) translate(-512.000000, -362.000000) translate(92.000000, 142.000000)">
                <g id="Yellow">
                    <g id="YellowLightText" transform="translate(60.000000, 385.000000) scale(-1, 1) translate(-60.000000, -385.000000) translate(0.000000, 330.000000)">
                        <rect id="DarkBackground" fill="#253240" x="0" y="0" width="120" height="110"></rect>
                        <text id="Aa" font-family="SFUIText-Light, SF UI Text" font-size="34" font-weight="300" letter-spacing="-0.815999985" fill="#E6AE46">
                            <tspan x="40.2715664" y="64">Aa</tspan>
                        </text>
                    </g>
                    <g transform="translate(60.000000, 275.000000) scale(-1, 1) translate(-60.000000, -275.000000) translate(0.000000, 220.000000)">
                        <rect id="LightBackground" fill="#FFFFFF" x="0" y="0" width="120" height="110"></rect>
                        <text id="Aa" font-family="SFUIText-Light, SF UI Text" font-size="34" font-weight="300" letter-spacing="-0.815999985" fill="#D5A845">
                            <tspan x="40.2715664" y="64">Aa</tspan>
                        </text>
                    </g>
                    <rect fill="#D5A844" x="0" y="110" width="120" height="110"></rect>
                    <rect id="YellowLight" fill="#E6AE46" x="0" y="0" width="120" height="110"></rect>
                </g>
                <g id="Violet" transform="translate(120.000000, 0.000000)">
                    <g id="VioletLightText" transform="translate(60.000000, 385.000000) scale(-1, 1) translate(-60.000000, -385.000000) translate(0.000000, 330.000000)">
                        <rect id="DarkBackground" fill="#253240" x="0" y="0" width="120" height="110"></rect>
                        <text id="Aa" font-family="SFUIText-Light, SF UI Text" font-size="34" font-weight="300" letter-spacing="-0.815999985" fill="#B868FD">
                            <tspan x="40.2715664" y="64">Aa</tspan>
                        </text>
                    </g>
                    <g id="VioletText" transform="translate(60.000000, 275.000000) scale(-1, 1) translate(-60.000000, -275.000000) translate(0.000000, 220.000000)">
                        <rect id="LightBackground" fill="#FFFFFF" x="0" y="0" width="120" height="110"></rect>
                        <text id="Aa" font-family="SFUIText-Light, SF UI Text" font-size="34" font-weight="300" letter-spacing="-0.815999985" fill="#7838FE">
                            <tspan x="40.2715664" y="64">Aa</tspan>
                        </text>
                    </g>
                    <rect fill="#7838FE" x="0" y="110" width="120" height="110"></rect>
                    <rect id="VioletLight" fill="#B868FD" x="0" y="0" width="120" height="110"></rect>
                </g>
                <g id="Blue" transform="translate(240.000000, 0.000000)">
                    <g id="BlueLightText" transform="translate(60.000000, 385.000000) scale(-1, 1) translate(-60.000000, -385.000000) translate(0.000000, 330.000000)">
                        <rect id="DarkBackground" fill="#253240" x="0" y="0" width="120" height="110"></rect>
                        <text id="Aa" font-family="SFUIText-Light, SF UI Text" font-size="34" font-weight="300" letter-spacing="-0.815999985" fill="#52ABF5">
                            <tspan x="40.2715664" y="64">Aa</tspan>
                        </text>
                    </g>
                    <g id="BlueText" transform="translate(60.000000, 275.000000) scale(-1, 1) translate(-60.000000, -275.000000) translate(0.000000, 220.000000)">
                        <rect id="LightBackground" fill="#FFFFFF" x="0" y="0" width="120" height="110"></rect>
                        <text id="Aa" font-family="SFUIText-Light, SF UI Text" font-size="34" font-weight="300" letter-spacing="-0.815999985" fill="#2B91FF">
                            <tspan x="40.2715664" y="64">Aa</tspan>
                        </text>
                    </g>
                    <rect fill="#2B91FF" x="0" y="110" width="120" height="110"></rect>
                    <rect id="BlueLight" fill="#52ABF5" x="0" y="0" width="120" height="110"></rect>
                </g>
                <g id="Green" transform="translate(360.000000, 0.000000)">
                    <g id="GreenLightText" transform="translate(60.000000, 385.000000) scale(-1, 1) translate(-60.000000, -385.000000) translate(0.000000, 330.000000)">
                        <rect id="DarkBackground" fill="#253240" x="0" y="0" width="120" height="110"></rect>
                        <text id="Aa" font-family="SFUIText-Light, SF UI Text" font-size="34" font-weight="300" letter-spacing="-0.815999985" fill="#7EE78B">
                            <tspan x="40.2715664" y="64">Aa</tspan>
                        </text>
                    </g>
                    <g id="GreenText" transform="translate(60.000000, 275.000000) scale(-1, 1) translate(-60.000000, -275.000000) translate(0.000000, 220.000000)">
                        <rect id="LightBackground" fill="#FFFFFF" x="0" y="0" width="120" height="110"></rect>
                        <text id="Aa" font-family="SFUIText-Light, SF UI Text" font-size="34" font-weight="300" letter-spacing="-0.815999985" fill="#35DE81">
                            <tspan x="40.2715664" y="64">Aa</tspan>
                        </text>
                    </g>
                    <rect fill="#35DE81" x="0" y="110" width="120" height="110"></rect>
                    <rect id="GreenLight" fill="#7EE78B" x="0" y="0" width="120" height="110"></rect>
                </g>
                <g id="Red" transform="translate(480.000000, 0.000000)">
                    <g id="RedLightText" transform="translate(60.000000, 385.000000) scale(-1, 1) translate(-60.000000, -385.000000) translate(0.000000, 330.000000)">
                        <rect id="DarkBackground" fill="#253240" x="0" y="0" width="120" height="110"></rect>
                        <text id="Aa" font-family="SFUIText-Light, SF UI Text" font-size="34" font-weight="300" letter-spacing="-0.815999985" fill="#FF5252">
                            <tspan x="40.2715664" y="64">Aa</tspan>
                        </text>
                    </g>
                    <g id="RedText" transform="translate(60.000000, 275.000000) scale(-1, 1) translate(-60.000000, -275.000000) translate(0.000000, 220.000000)">
                        <rect id="LightBackground" fill="#FFFFFF" x="0" y="0" width="120" height="110"></rect>
                        <text id="Aa" font-family="SFUIText-Light, SF UI Text" font-size="34" font-weight="300" letter-spacing="-0.815999985" fill="#FC3252">
                            <tspan x="40.2715664" y="64">Aa</tspan>
                        </text>
                    </g>
                    <rect fill="#FC3252" x="0" y="110" width="120" height="110"></rect>
                    <rect id="RedLight" fill="#FF5252" x="0" y="0" width="120" height="110"></rect>
                </g>
                <g id="Assistance" transform="translate(600.000000, 0.000000)">
                    <g id="AssistanceText" transform="translate(60.000000, 385.000000) scale(-1, 1) translate(-60.000000, -385.000000) translate(0.000000, 330.000000)">
                        <rect id="DarkBackground" fill="#253240" x="0" y="0" width="120" height="110"></rect>
                        <text id="Aa" font-family="SFUIText-Light, SF UI Text" font-size="34" font-weight="300" letter-spacing="-0.815999985" fill="#5B6D7B">
                            <tspan x="40.2715664" y="64">Aa</tspan>
                        </text>
                    </g>
                    <g id="AssistanceLightText" transform="translate(60.000000, 275.000000) scale(-1, 1) translate(-60.000000, -275.000000) translate(0.000000, 220.000000)">
                        <rect id="LightBackground" fill="#FFFFFF" x="0" y="0" width="120" height="110"></rect>
                        <text id="Aa" font-family="SFUIText-Light, SF UI Text" font-size="34" font-weight="300" letter-spacing="-0.815999985" fill-opacity="0.204059103" fill="#3C4852">
                            <tspan x="40.2715664" y="64">Aa</tspan>
                        </text>
                    </g>
                    <rect fill="#3B4851" x="0" y="110" width="120" height="110"></rect>
                    <rect id="AssistanceLight" fill="#5B6D7B" x="0" y="0" width="120" height="110"></rect>
                </g>
                <g id="Primary" transform="translate(720.000000, 0.000000)">
                    <g id="LightText" transform="translate(60.000000, 385.000000) scale(-1, 1) translate(-60.000000, -385.000000) translate(0.000000, 330.000000)">
                        <rect id="DarkBackground" fill="#253240" x="0" y="0" width="120" height="110"></rect>
                        <text id="Aa" font-family="SFUIText-Light, SF UI Text" font-size="34" font-weight="300" letter-spacing="-0.815999985" fill="#FFFFFF">
                            <tspan x="40.2715664" y="64">Aa</tspan>
                        </text>
                    </g>
                    <g id="DarkText" transform="translate(60.000000, 275.000000) scale(-1, 1) translate(-60.000000, -275.000000) translate(0.000000, 220.000000)">
                        <rect id="LightBackground" fill="#FFFFFF" x="0" y="0" width="120" height="110"></rect>
                        <text id="Aa" font-family="SFUIText-Light, SF UI Text" font-size="34" font-weight="300" letter-spacing="-0.815999985" fill="#253240">
                            <tspan x="40.2715664" y="64">Aa</tspan>
                        </text>
                    </g>
                    <rect id="Dark" fill="#253240" x="0" y="110" width="120" height="110"></rect>
                    <rect id="Light" fill="#FFFFFF" x="0" y="0" width="120" height="110"></rect>
                </g>
            </g>
        </g>
    </g>
</svg>